<?xml version="1.0" standalone="no"?>
<!DOCTYPE svg PUBLIC "-//W3C//DTD SVG 20010904//EN"
 "http://www.w3.org/TR/2001/REC-SVG-20010904/DTD/svg10.dtd">
<svg version="1.0" xmlns="http://www.w3.org/2000/svg"
 width="1024.000000pt" height="1024.000000pt" viewBox="0 0 1024.000000 1024.000000"
 preserveAspectRatio="xMidYMid meet">
<metadata>
Created by potrace 1.14, written by Peter Selinger 2001-2017
</metadata>
<g transform="translate(0.000000,1024.000000) scale(0.100000,-0.100000)"
fill="#000000" stroke="none">
<path d="M4858 10236 c-1 -2 -50 -6 -108 -10 -58 -3 -116 -8 -130 -11 -14 -2
-52 -6 -85 -10 -33 -3 -76 -7 -95 -10 -58 -7 -294 -46 -300 -50 -3 -2 -26 -6
-50 -10 -94 -14 -412 -99 -582 -156 -327 -109 -635 -246 -918 -408 -123 -71
-341 -207 -375 -234 -5 -4 -63 -46 -127 -93 l-117 -85 -88 28 c-77 24 -104 27
-218 27 -151 0 -219 -15 -341 -75 -199 -98 -346 -277 -406 -497 -19 -68 -22
-111 -25 -355 l-4 -279 -83 -131 c-236 -377 -395 -703 -526 -1082 -69 -202
-140 -458 -174 -635 -2 -14 -9 -47 -15 -75 -6 -27 -13 -66 -16 -85 -12 -77
-34 -238 -40 -285 -3 -27 -8 -63 -10 -80 -26 -192 -26 -857 0 -1016 2 -13 6
-49 9 -79 8 -79 15 -129 37 -265 29 -174 30 -178 33 -184 2 -3 7 -23 10 -44 3
-22 20 -94 37 -160 17 -67 32 -129 34 -137 2 -8 17 -60 34 -115 135 -447 347
-904 602 -1296 l69 -105 1 -269 c1 -292 12 -380 61 -501 86 -209 265 -371 493
-444 56 -18 98 -23 208 -26 l138 -2 52 -39 c143 -107 267 -152 446 -159 73 -3
101 -8 130 -25 41 -24 62 -37 176 -104 138 -81 473 -241 645 -308 151 -59 244
-91 420 -145 93 -29 344 -92 420 -106 14 -3 50 -9 80 -15 79 -15 107 -20 175
-30 104 -17 130 -20 191 -26 32 -4 75 -8 94 -10 220 -26 874 -26 1009 0 9 2
47 6 83 9 37 4 75 8 85 10 10 2 41 7 68 10 42 6 118 19 235 40 77 14 138 28
212 47 46 11 91 22 101 24 46 10 254 72 353 106 293 101 559 219 851 378 187
101 503 315 704 476 252 201 568 511 734 720 22 28 42 52 45 55 14 13 145 186
212 280 71 101 180 271 228 355 13 22 36 63 52 90 36 63 176 344 205 410 12
28 34 77 48 110 48 109 153 408 193 550 36 128 67 247 64 252 0 2 4 17 9 35
11 36 47 213 55 268 3 19 9 60 14 90 17 102 33 242 47 415 15 193 8 753 -11
865 -3 14 -7 52 -10 85 -8 77 -15 133 -21 165 -3 14 -7 43 -11 65 -23 165 -94
477 -145 643 -107 347 -189 551 -344 857 -115 227 -134 260 -276 480 -266 412
-618 808 -1019 1145 -10 8 -29 24 -42 35 -26 22 -296 224 -343 256 -51 35
-156 102 -240 153 -78 48 -344 196 -352 196 -2 0 -54 24 -116 54 -343 165
-758 303 -1142 380 -66 14 -138 27 -160 30 -22 4 -65 11 -95 16 -30 5 -75 12
-100 15 -25 3 -56 8 -70 10 -14 2 -61 7 -105 10 -44 4 -98 9 -120 12 -47 4
-642 13 -647 9z m632 -509 c19 -3 67 -8 105 -12 93 -8 428 -59 467 -71 10 -3
30 -7 45 -10 16 -3 46 -10 68 -16 22 -5 48 -12 57 -13 56 -11 375 -105 426
-126 37 -15 63 -25 177 -69 246 -95 575 -267 818 -427 411 -271 723 -554 1079
-981 50 -61 175 -234 244 -340 42 -64 85 -129 95 -144 11 -15 19 -29 19 -31 0
-2 30 -57 68 -123 83 -147 185 -359 250 -524 48 -120 129 -350 137 -387 2 -10
17 -65 33 -123 33 -113 62 -241 88 -385 9 -49 17 -97 19 -105 2 -8 8 -58 14
-110 7 -52 14 -111 16 -130 31 -239 26 -798 -9 -1045 -3 -16 -8 -52 -11 -80
-8 -60 -11 -76 -30 -185 -19 -106 -23 -127 -29 -148 -3 -9 -7 -28 -10 -42 -2
-14 -9 -45 -16 -70 -7 -25 -14 -54 -16 -65 -25 -140 -213 -662 -289 -805 -8
-14 -37 -72 -66 -130 -154 -312 -382 -651 -633 -940 -104 -120 -313 -337 -338
-351 -14 -7 -20 2 -38 59 -31 96 -77 174 -177 298 -48 60 -94 118 -103 128 -8
10 -22 26 -30 35 -8 9 -42 50 -75 91 -33 41 -70 86 -82 100 -11 14 -87 106
-168 205 -81 99 -154 189 -164 200 -9 11 -88 108 -176 215 -88 107 -167 204
-176 215 -9 11 -41 49 -70 85 -30 36 -115 139 -189 230 -74 91 -139 170 -145
177 -13 14 -31 36 -270 328 -108 132 -209 255 -223 274 -15 19 -32 39 -37 45
-6 6 -38 45 -70 86 -33 41 -65 80 -71 85 -6 6 -100 120 -210 254 -109 134
-254 312 -321 394 -68 83 -123 151 -123 152 0 0 39 42 88 92 48 50 180 187
293 304 114 118 237 246 275 286 86 89 424 439 524 543 41 42 163 169 270 280
107 112 229 238 270 280 449 464 580 602 580 612 0 3 6 13 14 21 24 24 86 153
108 225 27 90 34 281 13 372 -55 233 -193 414 -400 522 -114 59 -210 81 -355
82 l-126 1 -49 42 c-63 53 -190 116 -280 139 -92 23 -259 27 -350 7 -38 -8
-102 -28 -142 -44 -142 -60 -159 -75 -723 -659 -35 -36 -383 -397 -519 -538
-287 -299 -495 -514 -546 -567 -84 -87 -451 -467 -521 -540 -31 -33 -164 -170
-294 -305 -130 -135 -269 -280 -310 -322 -40 -43 -76 -78 -79 -78 -3 0 -6 474
-7 1053 -1 578 -4 1084 -7 1122 -12 134 -57 253 -138 370 -52 74 -155 171
-219 205 -14 7 -27 16 -30 20 -3 4 -31 19 -62 32 l-57 24 87 54 c244 150 526
294 757 385 114 45 427 151 470 159 11 2 65 16 120 29 55 14 114 29 130 32 65
13 302 56 335 60 19 2 51 6 70 9 44 7 128 14 245 22 50 4 92 8 94 10 5 4 571
-4 611 -9z m-4599 -4607 c0 -1014 -2 -1844 -4 -1846 -6 -7 -115 275 -162 421
-25 77 -66 221 -90 320 -38 154 -51 218 -79 385 -3 14 -7 48 -11 75 -3 28 -8
64 -10 80 -21 135 -30 303 -30 575 0 241 3 306 21 480 6 56 40 298 48 336 2
12 7 38 10 59 4 20 8 40 10 44 2 3 7 24 10 46 8 51 79 324 101 389 9 26 18 56
20 65 6 25 84 241 104 286 10 22 26 61 36 88 10 26 20 46 22 44 2 -3 4 -834 4
-1847z m3414 -1475 c157 -192 301 -368 319 -390 253 -307 977 -1189 1165
-1420 135 -165 248 -302 251 -305 3 -3 54 -64 113 -137 174 -214 252 -280 407
-347 93 -39 146 -49 282 -51 l137 -2 41 -34 40 -34 -52 -23 c-477 -213 -996
-345 -1543 -390 -181 -14 -624 -8 -820 12 -49 5 -170 19 -175 21 -3 1 -30 5
-60 10 -30 5 -57 9 -60 10 -3 0 -27 4 -53 9 -27 4 -56 9 -65 11 -10 2 -51 11
-92 20 -347 73 -725 206 -1058 370 -95 46 -172 87 -172 90 0 3 17 32 39 63 49
73 102 193 116 262 15 74 18 246 18 900 0 529 4 758 11 766 52 55 427 444 486
505 41 43 153 159 249 258 96 100 178 180 182 179 4 -2 136 -160 294 -353z"/>
</g>
</svg>
